<svg width="1194" height="975" viewBox="0 0 1194 975" fill="none" xmlns="http://www.w3.org/2000/svg">
<path d="M84 752.5V305C85.622 233.571 63.002 218.329 0.5 214.5V207H236.5L234 90.5C231.087 41.2268 210.09 22.2245 141.5 15.5V3.5C246.366 0.967127 247 0.5 422.5 0.5C598 0.5 640 16.7163 682.5 33.7164C725 50.7165 801 107 828 185.5L745.5 240.5C710.288 135.37 675.283 92.5936 581.5 49.5C507.015 25.1799 449.1 17.751 327 29.5001V210.5C421.346 222.386 486.303 228.454 549.5 277C663.134 364.291 621.43 438.677 486 497.5L634 697.5C739.615 824.583 792.18 873.781 871 912C947.487 944.216 994.229 946.854 1087.5 912C1020.43 995.391 837.5 972.5 816.5 968C795.5 963.5 704.5 933 622.5 833L620.133 829.856C520.532 697.556 461.615 619.296 384 503C301.157 494.162 256.294 497.004 179 515.5V745C176.864 806.015 200.877 825.45 277 835V844.5H6.5V835C63.6971 827.296 83.6806 816.941 84 752.5Z" fill="url(#paint0_linear_3_7)"/>
<path d="M329 521.5C295.082 519.015 274.399 519.082 236.5 526.5V640C233 685.5 225.855 700.761 207 710.5V716.5H507L489 691.5H402C353.632 687.417 331 680 329 635V521.5Z" fill="url(#paint1_linear_3_7)"/>
<path d="M741.5 519.5C711.791 590.332 687.51 619.623 631.5 654.5C641.631 668.736 646.862 676.801 654.5 691.5C727.39 661.213 758.353 631.569 806 569C777.904 550.475 763.815 539.629 741.5 519.5Z" fill="url(#paint2_linear_3_7)"/>
<path d="M1100 215L1107.5 362.5H1093.5C1078 265 1035.5 233.5 939 225.5C860.293 224.318 804.5 257.5 793 332C781.5 406.5 894.087 471.48 913 477.5C931.913 483.52 1058.55 532.732 1124.5 594C1164.11 629.97 1193 654.5 1193 729.5C1193 798 1167.78 826.639 1107.5 865C1085.5 879 997 907 925.5 906.5C977.946 896.008 1003.13 887.822 1033 865C1086.32 819.887 1096.54 789.802 1087.5 729.5C1078.4 687.419 1061 663.995 972.5 623C817.593 557.755 762.207 523.121 730.5 465.5C704.615 404.642 707.5 343.5 730.5 296.5C753.5 249.5 822 195.5 913 191.5C1004 187.5 1100 215 1100 215Z" fill="url(#paint3_linear_3_7)"/>
<path d="M849.5 410.5C855.019 364.058 855.597 334.979 849.5 274.5C829.92 290.098 822.448 303.554 819.5 341.5C820.816 370.921 828.683 385.72 849.5 410.5Z" fill="url(#paint4_linear_3_7)"/>
<path d="M422.5 0C510.262 0 564.668 4.0539 602.456 10.2393C640.258 16.4269 661.422 24.7464 682.686 33.252C704.002 41.7787 733.68 60.1374 761.405 86.1816C789.133 112.228 814.939 145.99 828.473 185.338L828.599 185.702L745.233 241.278L745.026 240.659C727.428 188.117 709.898 151.211 685.084 122.061C660.279 92.9211 628.161 71.4931 581.32 49.9668C507.018 25.709 449.225 18.2742 327.5 29.9551V210.059C421.574 221.904 486.578 228.034 549.805 276.604C606.668 320.285 624.885 360.912 611.62 398.094C605.002 416.645 590.566 434.257 569.345 450.899C548.241 467.45 520.397 483.063 486.774 497.706L634.399 697.198C739.99 824.25 792.497 873.377 871.203 911.543C909.414 927.637 940.151 936.323 972.961 936.651C1005.78 936.98 1040.72 928.949 1087.33 911.531L1089.03 910.894L1087.89 912.313C1054.22 954.185 991.521 969.318 934.762 973.458C877.973 977.6 826.942 970.749 816.396 968.489C795.3 963.969 704.194 933.416 622.113 833.317L622.106 833.31L622.101 833.301L619.733 830.157C520.188 697.932 461.274 619.674 383.714 503.472C301.211 494.684 256.43 497.512 179.5 515.895V745.018C178.434 775.47 183.9 795.395 198.986 808.927C214.112 822.493 239.004 829.729 277.062 834.504L277.5 834.559V845H6V834.562L6.43359 834.504C35.0535 830.649 54.1831 826.143 66.2344 814.664C78.2607 803.208 83.3402 784.698 83.5 752.5V304.988C84.3105 269.295 79.0519 247.816 65.9434 234.754C52.8239 221.681 31.7226 216.914 0.469727 214.999L0 214.971V206.5H235.989L233.5 90.5107C232.045 65.9457 226.089 49.049 212.061 37.4297C197.996 25.7811 175.731 19.3588 141.451 15.998L141 15.9531V3.01172L141.488 3C246.358 0.46704 246.996 5.96046e-08 422.5 0ZM422.5 1C247.277 1 246.376 1.46486 142 3.9873V15.0479C176.057 18.4238 198.451 24.8592 212.698 36.6592C226.592 48.1662 232.656 64.7009 234.349 88.1768L234.499 90.4707L234.5 90.4795V90.4893L237.011 207.5H1V214.031C31.9942 215.965 53.3061 220.75 66.6494 234.046C80.0708 247.419 85.3115 269.277 84.5 305.012V752.502C84.3402 784.743 79.2679 803.631 66.9238 815.389C54.6666 827.064 35.3403 831.599 7 835.436V844H276.5V835.439C238.681 830.663 213.638 823.411 198.319 809.672C182.903 795.845 177.43 775.545 178.5 744.982V515.105L178.884 515.014C255.027 496.794 299.743 493.751 380.194 502.097L384.286 502.527L384.416 502.723C462.022 619.005 520.931 697.255 620.532 829.556L622.896 832.696C704.812 932.587 795.7 963.031 816.604 967.511C827.058 969.751 877.995 976.595 934.688 972.46C990.76 968.37 1052.28 953.551 1085.94 913.108C1040.14 930.1 1005.54 937.978 972.951 937.651C939.954 937.321 909.077 928.581 870.806 912.461L870.794 912.456L870.782 912.45C791.86 874.182 739.237 824.911 633.615 697.819L633.606 697.809L633.598 697.797L485.224 497.292L485.801 497.041C519.635 482.345 547.593 466.687 568.728 450.112C589.864 433.536 604.146 416.067 610.678 397.758C623.714 361.219 605.965 321.006 549.195 277.396C486.126 228.948 421.318 222.887 326.938 210.996L326.5 210.941V29.0459L326.952 29.002C447.196 17.4315 505.263 24.451 578.172 47.8955L581.655 49.0244L581.683 49.0332L581.709 49.0459C628.635 70.6087 660.904 92.1137 685.845 121.412C710.683 150.591 728.221 187.462 745.765 239.722L827.399 185.299C813.899 146.303 788.281 112.8 760.72 86.9102C733.07 60.9377 703.498 42.654 682.314 34.1807C661.078 25.6862 639.992 17.3971 602.294 11.2266C564.582 5.05379 510.238 1 422.5 1ZM1192.5 729.5C1192.5 692.07 1185.29 667.283 1173.18 647.374C1161.05 627.445 1143.99 612.369 1124.16 594.37L1124.16 594.366C1091.24 563.783 1043.15 536.19 1000.89 515.481C958.64 494.776 922.276 480.978 912.849 477.977C908.059 476.452 897.432 471.234 884.39 463.127C871.335 455.012 855.823 443.98 841.26 430.801C812.168 404.474 786.714 369.444 792.506 331.924C798.274 294.555 815.163 267.505 840.513 249.958C865.849 232.42 899.589 224.408 939.008 225H939.024L939.041 225.002C987.324 229.005 1022.2 238.892 1046.95 260.058C1071.63 281.17 1086.15 313.431 1093.93 362H1106.97L1099.52 215.383C1099.34 215.332 1099.09 215.262 1098.77 215.174C1098.04 214.974 1096.97 214.681 1095.57 214.31C1092.77 213.566 1088.67 212.509 1083.46 211.252C1073.05 208.738 1058.21 205.428 1040.54 202.242C1005.18 195.87 958.47 190.002 913.022 192C822.194 195.993 753.864 249.895 730.949 296.72C708.021 343.573 705.128 404.55 730.947 465.274C762.065 521.815 816.058 556.204 965.505 619.503L972.694 622.539L972.702 622.543L972.71 622.546C1016.97 643.047 1043.51 659.181 1060.12 675.485C1076.24 691.306 1083 707.264 1087.55 727.43L1087.99 729.395L1087.99 729.41L1087.99 729.426C1092.52 759.61 1092.24 782.31 1084.1 803.128C1075.97 823.941 1060.01 842.806 1033.32 865.382L1033.3 865.397C1004.3 887.557 979.689 895.952 930.552 905.988C964.929 905.601 1002.73 898.977 1034.94 890.703C1068.74 882.017 1096.3 871.533 1107.23 864.578C1137.36 845.404 1158.66 828.7 1172.44 808.272C1186.21 787.862 1192.5 763.685 1192.5 729.5ZM236.404 526.009C274.356 518.581 295.085 518.515 329.036 521.002L329.5 521.035V634.978L329.55 636.021C330.688 657.797 336.805 670.435 348.39 678.178C360.217 686.083 377.831 688.957 402.02 691H489.256L489.406 691.208L507.977 717H206.5V710.195L206.771 710.056C216.106 705.234 222.518 699.066 227.049 688.464C231.593 677.828 234.251 662.715 236 639.986V526.088L236.404 526.009ZM328.5 521.965C295.011 519.526 274.417 519.617 237 526.912V640.02L236.998 640.038C235.248 662.795 232.583 678.057 227.968 688.857C223.381 699.592 216.874 705.905 207.5 710.802V716H506.024L488.744 692H401.979L401.958 691.998C377.791 689.958 359.911 687.081 347.834 679.01C335.695 670.896 329.505 657.605 328.501 635.022L328.5 635.012V521.965ZM741.835 519.129C764.129 539.239 778.199 550.071 806.275 568.583L806.722 568.877L806.397 569.303C782.568 600.595 762.888 623.685 740.036 642.74C717.179 661.799 691.168 676.805 654.691 691.962L654.268 692.138L654.057 691.73C646.433 677.057 641.215 669.013 631.093 654.79L630.784 654.356L631.235 654.076C659.214 636.654 679.237 620.646 695.976 600.167C712.717 579.684 726.193 554.704 741.039 519.307L741.312 518.657L741.835 519.129ZM741.688 520.341C726.932 555.434 713.476 580.336 696.75 600.8C680.008 621.283 660.011 637.295 632.214 654.643C642.06 668.492 647.27 676.542 654.729 690.861C690.92 675.791 716.724 660.876 739.396 641.972C762.056 623.077 781.606 600.182 805.277 569.122C777.678 550.908 763.604 540.081 741.688 520.341ZM849.997 274.45C856.098 334.962 855.52 364.078 849.996 410.56L849.86 411.706L849.117 410.821C838.701 398.422 831.494 388.485 826.731 377.946C821.965 367.398 819.661 356.277 819.001 341.522L818.999 341.492L819.002 341.461C820.478 322.469 823.088 309.547 827.81 299.408C832.538 289.256 839.365 281.935 849.188 274.109L849.905 273.538L849.997 274.45ZM849.093 275.467C839.725 283.022 833.241 290.116 828.717 299.831C824.074 309.8 821.474 322.568 820.001 341.5C820.658 356.155 822.945 367.139 827.643 377.535C832.234 387.695 839.142 397.321 849.139 409.286C854.498 363.787 855.039 334.791 849.093 275.467ZM1193.5 729.5C1193.5 763.815 1187.18 788.207 1173.27 808.832C1159.37 829.44 1137.92 846.235 1107.77 865.422C1096.7 872.467 1069.01 882.983 1035.19 891.672C1001.35 900.365 961.304 907.25 925.496 907L925.402 906.01C977.818 895.523 1002.91 887.356 1032.68 864.61C1059.32 842.077 1075.13 823.345 1083.17 802.764C1091.21 782.188 1091.52 759.698 1087.01 729.588C1082.47 708.616 1075.88 692.345 1059.42 676.199C1042.94 660.024 1016.54 643.95 972.306 623.46C817.423 558.225 761.864 523.537 730.062 465.741L730.05 465.719L730.04 465.696C704.102 404.714 706.983 343.42 730.051 296.28C753.136 249.105 821.808 195.009 912.979 191.001C958.53 188.999 1005.32 194.88 1040.71 201.258C1058.41 204.447 1073.27 207.762 1083.7 210.279C1088.91 211.538 1093.02 212.598 1095.83 213.343C1097.23 213.715 1098.31 214.009 1099.03 214.21C1099.4 214.31 1099.67 214.388 1099.86 214.44C1099.95 214.466 1100.02 214.486 1100.07 214.499C1100.09 214.506 1100.11 214.511 1100.12 214.515C1100.13 214.516 1100.13 214.518 1100.13 214.519L1100.14 214.52C1100.14 214.523 1100.13 214.555 1100.04 214.864L1100.14 214.52L1100.48 214.618L1100.5 214.975L1108 362.475L1108.03 363H1093.07L1093.01 362.578C1085.26 313.882 1070.8 281.769 1046.3 260.817C1021.8 239.862 987.186 229.997 938.979 225.999C899.697 225.411 866.191 233.4 841.082 250.78C815.984 268.153 799.226 294.946 793.494 332.076C787.786 369.056 812.876 403.766 841.931 430.06C856.441 443.191 871.903 454.188 884.918 462.278C897.945 470.376 908.485 475.538 913.151 477.023C922.637 480.043 959.047 493.861 1001.33 514.583C1043.61 535.303 1091.81 562.949 1124.84 593.634C1144.63 611.603 1161.81 626.777 1174.03 646.854C1186.26 666.952 1193.5 691.93 1193.5 729.5Z" fill="#9D9889"/>
<path d="M178 231.5V481C198.247 472.933 210.688 469.718 235.811 467.5V231.5C213.234 229.356 200.576 229.547 178 231.5Z" fill="#F5F5F5"/>
<path d="M331.985 457V238C510.122 237.636 568.141 377.657 475 457H331.985Z" fill="#F5F5F5"/>
<path d="M177.957 231.002C200.559 229.047 213.247 228.855 235.858 231.002L236.311 231.045V467.958L235.854 467.998C210.781 470.212 198.387 473.416 178.186 481.465L177.5 481.737V231.041L177.957 231.002ZM235.311 231.955C213.203 229.874 200.615 230.059 178.5 231.959V480.264C198.269 472.426 210.727 469.239 235.311 467.043V231.955ZM331.983 237.5C421.175 237.318 480.415 272.285 505.658 317.365C530.913 362.467 522.063 417.566 475.324 457.381L475.185 457.5H331.484V237.501L331.983 237.5ZM332.484 456.5H474.814C521.095 416.981 529.764 362.464 504.785 317.855C479.816 273.264 421.151 238.45 332.484 238.5V456.5Z" fill="#9D9889"/>
<defs>
<linearGradient id="paint0_linear_3_7" x1="596.75" y1="0" x2="596.75" y2="974.762" gradientUnits="userSpaceOnUse">
<stop offset="0.0594488" stop-color="#F0DAB5"/>
<stop offset="0.276029" stop-color="#F3E1BB"/>
<stop offset="0.464843" stop-color="#F0DAB5"/>
<stop offset="0.603677" stop-color="#F6E6C4"/>
<stop offset="0.698084" stop-color="#EED8B3"/>
</linearGradient>
<linearGradient id="paint1_linear_3_7" x1="596.75" y1="0" x2="596.75" y2="974.762" gradientUnits="userSpaceOnUse">
<stop offset="0.0594488" stop-color="#F0DAB5"/>
<stop offset="0.276029" stop-color="#F3E1BB"/>
<stop offset="0.464843" stop-color="#F0DAB5"/>
<stop offset="0.603677" stop-color="#F6E6C4"/>
<stop offset="0.698084" stop-color="#EED8B3"/>
</linearGradient>
<linearGradient id="paint2_linear_3_7" x1="596.75" y1="0" x2="596.75" y2="974.762" gradientUnits="userSpaceOnUse">
<stop offset="0.0594488" stop-color="#F0DAB5"/>
<stop offset="0.276029" stop-color="#F3E1BB"/>
<stop offset="0.464843" stop-color="#F0DAB5"/>
<stop offset="0.603677" stop-color="#F6E6C4"/>
<stop offset="0.698084" stop-color="#EED8B3"/>
</linearGradient>
<linearGradient id="paint3_linear_3_7" x1="596.75" y1="0" x2="596.75" y2="974.762" gradientUnits="userSpaceOnUse">
<stop offset="0.0594488" stop-color="#F0DAB5"/>
<stop offset="0.276029" stop-color="#F3E1BB"/>
<stop offset="0.464843" stop-color="#F0DAB5"/>
<stop offset="0.603677" stop-color="#F6E6C4"/>
<stop offset="0.698084" stop-color="#EED8B3"/>
</linearGradient>
<linearGradient id="paint4_linear_3_7" x1="596.75" y1="0" x2="596.75" y2="974.762" gradientUnits="userSpaceOnUse">
<stop offset="0.0594488" stop-color="#F0DAB5"/>
<stop offset="0.276029" stop-color="#F3E1BB"/>
<stop offset="0.464843" stop-color="#F0DAB5"/>
<stop offset="0.603677" stop-color="#F6E6C4"/>
<stop offset="0.698084" stop-color="#EED8B3"/>
</linearGradient>
</defs>
</svg>
